<svg preserveAspectRatio="none" overflow="visible" style="display: block;" width="60" height="60" viewBox="0 0 60 60" fill="none" xmlns="http://www.w3.org/2000/svg">
<g id="Call">
<path id="Vector" d="M29.9219 25.3294C29.9219 25.8894 30.3719 26.3294 30.9219 26.3294C32.0619 26.3294 32.9819 27.2594 32.9819 28.3894C32.9819 28.9394 33.4319 29.3894 33.9819 29.3894C34.5319 29.3894 34.9819 28.9394 34.9819 28.3894C34.9819 26.1494 33.1619 24.3294 30.9219 24.3294C30.3719 24.3294 29.9219 24.7794 29.9219 25.3294ZM46.2019 29.3894C46.7619 29.3894 47.2019 28.9394 47.2019 28.3894C47.2019 19.4094 39.9019 12.1094 30.9219 12.1094C30.3719 12.1094 29.9219 12.5594 29.9219 13.1094C29.9219 13.6594 30.3719 14.1094 30.9219 14.1094C38.8019 14.1094 45.2019 20.5194 45.2019 28.3894C45.2019 28.9394 45.6519 29.3894 46.2019 29.3894Z" fill="url(#paint0_linear_0_92)"/>
<path id="Vector_2" d="M39.0906 28.39C39.0906 28.94 39.5406 29.39 40.0906 29.39C40.6406 29.39 41.0906 28.94 41.0906 28.39C41.0906 22.78 36.5306 18.22 30.9206 18.22C30.3706 18.22 29.9206 18.67 29.9206 19.22C29.9206 19.78 30.3706 20.22 30.9206 20.22C35.4306 20.22 39.0906 23.89 39.0906 28.39ZM30.9206 6C30.3706 6 29.9206 6.45 29.9206 7C29.9206 7.55 30.3706 8 30.9206 8C42.1706 8 51.3206 17.15 51.3206 28.39C51.3206 28.94 51.7606 29.39 52.3206 29.39C52.8706 29.39 53.3206 28.94 53.3206 28.39C53.3206 16.04 43.2706 6 30.9206 6ZM40.6906 38.93L39.3806 39.64C37.1706 40.85 34.3706 40.44 32.5806 38.65L22.0206 28.09C20.2306 26.3 19.8206 23.5 21.0306 21.28L21.7406 19.98C22.5406 18.5 22.8306 16.84 22.5906 15.18C22.3639 13.5234 21.5977 11.9875 20.4106 10.81C18.9506 9.35 17.0106 8.55 14.9406 8.55C12.8706 8.55 10.9206 9.35 9.4606 10.81L8.9506 11.33C6.2506 14.03 5.9406 18.68 8.0706 24.44C10.0806 29.94 14.1306 35.9 19.4506 41.22C27.5606 49.33 36.5906 54 43.0706 54C45.6306 54 47.8006 53.27 49.3406 51.73L49.8606 51.21C50.5807 50.4907 51.1519 49.6364 51.5414 48.6961C51.9309 47.7557 52.1311 46.7478 52.1306 45.73C52.1166 43.6803 51.302 41.7173 49.8606 40.26C47.4506 37.85 43.6806 37.31 40.6906 38.93Z" fill="url(#paint1_linear_0_92)"/>
</g>
<defs>
<linearGradient id="paint0_linear_0_92" x1="29.922" y1="20.75" x2="47.202" y2="20.75" gradientUnits="userSpaceOnUse">
<stop stop-color="#00247E"/>
<stop offset="1" stop-color="#0C5ADB"/>
</linearGradient>
<linearGradient id="paint1_linear_0_92" x1="6.67217" y1="30.0016" x2="53.3209" y2="30.0016" gradientUnits="userSpaceOnUse">
<stop stop-color="#00247E"/>
<stop offset="1" stop-color="#0C5ADB"/>
</linearGradient>
</defs>
</svg>
