<svg preserveAspectRatio="none" overflow="visible" style="display: block;" width="20" height="20" viewBox="0 0 20 20" fill="none" xmlns="http://www.w3.org/2000/svg">
<g id="Icon">
<path id="Vector" d="M14.1992 9.55078L7.94922 3.30078C7.88411 3.2487 7.81576 3.20638 7.74414 3.17383C7.67253 3.14128 7.59115 3.125 7.5 3.125C7.33073 3.125 7.18424 3.18685 7.06055 3.31055C6.93685 3.43424 6.875 3.58073 6.875 3.75C6.875 3.84115 6.89128 3.92253 6.92383 3.99414C6.95638 4.06576 6.9987 4.13411 7.05078 4.19922L12.8711 10L7.05078 15.8008C6.9987 15.8659 6.95638 15.9342 6.92383 16.0059C6.89128 16.0775 6.875 16.1589 6.875 16.25C6.875 16.4193 6.93685 16.5658 7.06055 16.6895C7.18424 16.8132 7.33073 16.875 7.5 16.875C7.59115 16.875 7.67253 16.8587 7.74414 16.8262C7.81576 16.7936 7.88411 16.7513 7.94922 16.6992L14.1992 10.4492C14.2513 10.3841 14.2936 10.3158 14.3262 10.2441C14.3587 10.1725 14.375 10.0911 14.375 10C14.375 9.90885 14.3587 9.82747 14.3262 9.75586C14.2936 9.68424 14.2513 9.61589 14.1992 9.55078Z" fill="#CACACA"/>
</g>
</svg>
