<svg preserveAspectRatio="none" overflow="visible" style="display: block;" width="164" height="40" viewBox="0 0 164 40" fill="none" xmlns="http://www.w3.org/2000/svg">
<g id="fi4CTiZZfE9JIXfc9wQk1COOzJU.svg">
<path id="Vector" d="M27.462 13.333H9.167C5.48492 13.333 2.5 16.3177 2.5 19.9995C2.5 23.6813 5.48492 26.666 9.167 26.666H27.462C31.1441 26.666 34.129 23.6813 34.129 19.9995C34.129 16.3177 31.1441 13.333 27.462 13.333Z" stroke="#656565" stroke-width="5"/>
<path id="Vector_2" d="M48.669 9.517H44.746V27.708H48.669V9.517ZM54.526 10.35H50.783V27.708H54.526V23.058L59.404 27.708H64.464L57.267 20.944L64.091 15.592H58.83L54.526 19.055V10.35ZM114.102 9.517H110.179V27.708H123.992V24.232H114.102V9.517Z" fill="#656565"/>
<path id="Vector_3" fill-rule="evenodd" clip-rule="evenodd" d="M142.354 10.35H138.611V27.708H142.594L142.454 26.685C143.336 27.611 144.548 28.068 146.08 28.068C147.084 28.068 148.003 27.81 148.807 27.243C149.606 26.678 150.212 25.905 150.652 24.931C151.093 23.956 151.323 22.846 151.323 21.605C151.323 20.408 151.092 19.32 150.652 18.347C150.211 17.371 149.604 16.62 148.807 16.057L148.804 16.055C148 15.5116 147.05 15.2247 146.08 15.232C144.489 15.232 143.244 15.725 142.354 16.723V10.35ZM143.071 19.397C143.548 18.817 144.162 18.528 144.933 18.528C145.68 18.528 146.298 18.816 146.8 19.38C147.301 19.966 147.557 20.702 147.557 21.627C147.557 22.577 147.3 23.313 146.798 23.899C146.297 24.484 145.68 24.772 144.933 24.772C144.162 24.772 143.548 24.483 143.071 23.902L143.068 23.899C142.569 23.316 142.332 22.58 142.332 21.627C142.332 20.721 142.568 19.985 143.068 19.401L143.071 19.397Z" fill="#656565"/>
<path id="Vector_4" d="M66.401 9.967C65.721 9.967 65.175 10.187 64.73 10.608L64.726 10.613C64.5096 10.8253 64.3387 11.0796 64.2238 11.3602C64.109 11.6408 64.0525 11.9418 64.058 12.245C64.058 12.927 64.279 13.475 64.726 13.922C65.176 14.372 65.726 14.568 66.401 14.568C67.061 14.568 67.609 14.346 68.054 13.9C68.5 13.4553 68.7227 12.9037 68.722 12.245C68.7276 11.9419 68.6713 11.6409 68.5566 11.3603C68.442 11.0797 68.2713 10.8254 68.055 10.613L68.05 10.608C67.606 10.188 67.06 9.967 66.401 9.967ZM100.135 9.967C99.455 9.967 98.909 10.187 98.465 10.608L98.46 10.613C98.2436 10.8253 98.0727 11.0796 97.9578 11.3602C97.843 11.6408 97.7865 11.9418 97.792 12.245C97.792 12.927 98.014 13.475 98.46 13.922C98.91 14.372 99.46 14.568 100.135 14.568C100.795 14.568 101.343 14.346 101.789 13.9C102.234 13.4553 102.456 12.9037 102.456 12.245C102.462 11.9419 102.405 11.6409 102.291 11.3603C102.176 11.0797 102.005 10.8254 101.789 10.613L101.784 10.608C101.34 10.188 100.794 9.967 100.135 9.967Z" fill="#656565"/>
<path id="Vector_5" fill-rule="evenodd" clip-rule="evenodd" d="M75.084 15.232C74.055 15.232 73.137 15.513 72.338 16.055L72.334 16.057C71.5148 16.6311 70.8748 17.4254 70.488 18.348C70.047 19.325 69.841 20.435 69.841 21.672C69.841 22.888 70.047 23.954 70.49 24.887C70.91 25.821 71.52 26.528 72.32 27.023C73.124 27.543 74.041 27.776 75.084 27.776C76.665 27.776 77.91 27.339 78.787 26.445V26.712C78.787 27.776 78.587 28.498 78.189 28.935L78.186 28.938C77.789 29.396 77.182 29.632 76.32 29.632C75.597 29.632 75.052 29.522 74.645 29.297C74.251 29.081 74.026 28.757 73.988 28.314L73.971 28.124H70.205L70.224 28.35C70.341 29.751 70.906 30.826 71.954 31.541C72.97 32.251 74.391 32.568 76.163 32.568C78.247 32.568 79.852 32.096 80.936 31.108C82.024 30.116 82.552 28.64 82.552 26.712V15.592H78.547L78.686 16.577C77.817 15.685 76.609 15.232 75.084 15.232ZM74.321 19.266C74.821 18.681 75.438 18.393 76.208 18.393C76.954 18.393 77.571 18.68 78.072 19.263C78.552 19.851 78.809 20.611 78.809 21.537C78.809 22.487 78.552 23.223 78.074 23.786C77.576 24.346 76.959 24.614 76.208 24.614C75.409 24.614 74.797 24.344 74.323 23.768L74.318 23.762C73.821 23.202 73.584 22.468 73.584 21.537C73.584 20.607 73.821 19.849 74.321 19.266ZM89.246 15.232C88.216 15.232 87.299 15.513 86.499 16.055L86.496 16.057C85.6838 16.6288 85.045 17.4136 84.65 18.325C84.209 19.302 84.003 20.389 84.003 21.605C84.003 22.842 84.209 23.952 84.65 24.929C85.0378 25.8572 85.6771 26.6587 86.496 27.243C87.3 27.811 88.22 28.068 89.246 28.068C90.767 28.068 91.976 27.632 92.846 26.732L92.707 27.708H96.714V15.592H92.707L92.848 16.588C91.968 15.689 90.759 15.232 89.246 15.232ZM87.746 21.627C87.746 20.698 87.982 19.963 88.481 19.379C88.981 18.816 89.599 18.529 90.37 18.529C91.116 18.529 91.733 18.815 92.234 19.378C92.714 19.965 92.971 20.703 92.971 21.628C92.971 22.576 92.714 23.314 92.233 23.901C91.733 24.485 91.116 24.771 90.369 24.771C89.599 24.771 88.983 24.484 88.482 23.899C87.982 23.316 87.746 22.58 87.746 21.627ZM129.593 15.232C128.564 15.232 127.646 15.513 126.847 16.055L126.843 16.057C126.031 16.6288 125.392 17.4136 124.997 18.325C124.556 19.302 124.35 20.389 124.35 21.605C124.35 22.842 124.556 23.952 124.997 24.929C125.383 25.858 126.023 26.6598 126.843 27.243C127.647 27.811 128.567 28.068 129.593 28.068C131.116 28.068 132.325 27.632 133.195 26.73L133.059 27.708H137.061V15.592H133.059L133.197 16.59C132.316 15.69 131.108 15.232 129.593 15.232ZM128.093 21.627C128.093 20.698 128.329 19.963 128.828 19.38C129.329 18.816 129.947 18.528 130.717 18.528C131.463 18.528 132.08 18.815 132.582 19.378C133.062 19.965 133.318 20.703 133.318 21.628C133.318 22.576 133.061 23.314 132.58 23.901C132.08 24.485 131.463 24.771 130.717 24.771C129.947 24.771 129.33 24.484 128.829 23.899C128.33 23.316 128.093 22.58 128.093 21.627Z" fill="#656565"/>
<path id="Vector_6" d="M158.289 15.232C156.554 15.232 155.16 15.597 154.126 16.302L154.124 16.305C153.078 17.042 152.574 18.051 152.574 19.287C152.574 20.221 152.808 20.975 153.303 21.52C153.77 22.0335 154.372 22.4053 155.04 22.593C155.683 22.7763 156.502 22.9357 157.497 23.071C158.43 23.205 159.088 23.359 159.52 23.51C159.681 23.5667 159.824 23.6662 159.933 23.798C160.02 23.9191 160.065 24.0658 160.059 24.215C160.059 24.486 159.91 24.746 159.581 24.993C159.272 25.225 158.83 25.334 158.244 25.334C157.555 25.334 157.016 25.184 156.61 24.899C156.212 24.619 156.002 24.253 156.002 23.765V23.557H152.278L152.282 23.769C152.306 25.114 152.852 26.189 153.919 26.949C154.956 27.703 156.376 28.069 158.154 28.069C159.865 28.069 161.238 27.726 162.252 27.019C163.271 26.307 163.802 25.344 163.802 24.102C163.802 23.122 163.545 22.346 163.051 21.802L163.048 21.799C162.553 21.28 161.96 20.899 161.291 20.707H161.289C160.468 20.4842 159.633 20.3168 158.789 20.206H158.782C157.887 20.116 157.239 19.983 156.842 19.816L156.833 19.812C156.684 19.7637 156.552 19.6726 156.454 19.55C156.374 19.433 156.334 19.2935 156.34 19.152C156.34 18.813 156.466 18.538 156.772 18.308C157.062 18.095 157.486 17.966 158.087 17.966C158.719 17.966 159.187 18.132 159.55 18.413C159.882 18.708 160.064 19.103 160.105 19.619L160.12 19.811H163.821L163.801 19.584C163.684 18.25 163.143 17.183 162.149 16.401C161.161 15.6223 159.874 15.2323 158.289 15.231M68.273 15.592H64.507V27.708H68.273V15.592ZM102.007 15.592H98.242V27.708H102.007V15.592Z" fill="#656565"/>
</g>
</svg>
